<svg xmlns="http://www.w3.org/2000/svg" width="682.667" height="682.667" viewBox="0 0 512 512"><path d="M237.8 80.1c-24.2 3-52.5 14.5-71.5 29.2-24.6 18.9-43.6 51.2-50.1 84.8-1.1 5.7-3 16-4.3 22.9-2.7 15.1-4.7 21.4-9.9 30.2-2.2 3.6-4 6.9-4 7.2 0 1 5.5.7 9.1-.5 1.9-.7 4.9-2.3 6.7-3.6 1.8-1.4 3.6-2.2 4-1.8 1.7 1.7.4 18.1-2.8 35-3 15.8-3.4 20-3.5 34.5 0 15.5.2 17 2.9 25.3 3.3 10.1 8.4 18.5 14.4 23.9 6.8 6.1 7.4 5.3 4.3-6.4-1.9-7-3.9-21.8-2.8-20.8.2.3 1.9 4 3.6 8.3 7.7 19.5 21.8 34 37.6 38.7 2.2.6 5.3 1 6.9.8l2.8-.3-3.2-4c-1.8-2.2-4.2-6-5.5-8.5-2.5-4.9-7.8-21-7.2-21.7.3-.2 2.1 1.8 4.2 4.5 7.1 9.4 18 15.9 28.3 16.9l5.7.6-3.2-3.6c-1.8-2.1-4-5.1-4.9-6.8-2-4-4.5-10.9-3.8-10.9.3 0 2.8 2.3 5.6 5 6 5.9 16.3 11.1 23.1 11.8 5.3.5 5.6.1 2.7-3.5-2.9-3.7-2.5-4.3 1.7-2.2 2.1 1 4.3 1.9 5 1.9.6 0 1.4.4 1.7.9 1.2 1.8-3.8 6.2-11.7 10.3-10.9 5.7-21.1 15.7-25.5 25.2-1.8 3.7-4.5 10.4-6 14.7-2.3 6.9-2.5 8.1-1.2 8.9 2.2 1.4 3.3-.2 8.1-12 4.1-10.1 7.8-17.4 8.5-16.8.2.2-1.3 5.3-3.2 11.3-1.9 6.1-3.8 12.9-4.1 15.2-.5 4.1-.4 4.3 1.9 4.3 1.4 0 3.8.6 5.4 1.4 4.6 2.3 20.3 5.1 22.2 4 .8-.6 3.3-5 5.4-9.9 4.9-11.3 5.9-12.4 5-5.4-.4 3-.7 8.1-.7 11.4v6l11 .3c6.1.1 14.4-.3 18.5-1 9.1-1.6 9.4-2.2 5.6-13.9-3.1-9.4-3-9-1.1-8.3.9.4 7.3-5.3 18.8-16.8 12.2-12.3 19.3-18.7 24.2-21.6 3.8-2.2 7.3-3.8 7.8-3.5s-1.1 1.6-3.5 3c-11.7 6.6-24.2 23.5-34.4 46.4-4.8 10.8-5.5 14.2-2.6 13.7 1.1-.2 4.4-5.6 9.2-15.3 7.9-15.9 9.4-18.3 17.4-28.3 5.3-6.7 14.5-13.6 19.6-14.7 2.2-.5 4.2 0 8 2.2 2.7 1.5 5 3.1 5 3.5 0 .3-1.4.9-3 1.3-4.7 1-14.2 8.7-19.1 15.5-7.8 10.7-15.9 28.1-15.9 34 0 6.1 2.9 3.2 6.5-6.4 7.3-19.3 17.6-33.1 28.2-37.8 10.1-4.5 16.9 2.9 25.3 27.2 2.5 7.3 4.1 10.6 5.3 10.8 2.7.5 2.1-4.7-2-17.1-6.1-18.5-15.4-29.9-29.8-36.8-3.3-1.6-6.5-2.9-7.1-2.9s-1.7-.7-2.5-1.6c-1.1-1.3-.6-2.2 3.4-6.2l4.7-4.7-1.6 4.8c-.9 2.6-1.4 5-1.1 5.3.8.8 4.5-1.4 8.9-5.4l4.1-3.7-1.7 3.4-1.8 3.4 3.3-.7c7-1.3 14.4-5.9 22.2-13.7 8.4-8.4 8.8-8 3.2 3.6-1.8 3.8-3.3 7.1-3.1 7.2.1.2 2.7-.9 5.7-2.4 3.1-1.6 8.4-5.7 12.4-9.8 10.2-10.3 15.2-20.7 18.9-39.4l1.4-6.6v9c.1 4.9-.5 11.9-1.3 15.5-.7 3.6-1.2 6.7-.9 6.9.7.8 5.4-4.2 9-9.6 7.7-11.6 11.3-27.6 9.5-41.7-1.4-10.6-4.5-20-13.6-41.1-3.9-9.4-8.2-20.6-9.3-25-2.4-9.3-8.2-37.7-8.2-40.3 0-1 1.1-2.9 2.5-4.2s3.1-4.1 3.7-6.3c1.1-3.5 1-4.1-.6-5.3-1.1-.7-2.4-1.5-2.9-1.7-.7-.2-.5-1.8.6-4.5 2-5 2.5-12.8.9-14.4-.8-.8-2.3-.8-5.6.1-2.5.6-4.7 1.1-4.9 1.1s-.7-3.1-.9-6.8c-.6-7.7-2.5-12.5-5.2-13-1.1-.3-3.5 1.2-6.2 3.9l-4.3 4.2-9.6-10.1c-15-15.7-26.5-23.5-46.8-31.6-16-6.4-27.7-8.6-47.7-9.1-9.1-.2-19.9 0-24.2.6m47.9 6.8c27.4 5.7 53.2 20.3 69.7 39.7 3.6 4.2 6.6 8.3 6.6 9.1s-.9 3.2-2.1 5.4l-2 4-3.9-3.5c-2.2-2-5.1-3.8-6.4-4.2-1.3-.3-4.4-3-6.8-6-2.3-3-4.6-5.4-5-5.4s.8 2.5 2.7 5.6c3.1 5.2 3.2 5.9 1.9 7.9-.8 1.2-2.1 5.1-2.9 8.6-2.1 9.2-4 15.7-4.8 16.5-.5.5-11.6 5.4-12.4 5.4-.1 0-.7-1.7-1.4-3.8-4.8-15-16.5-34.2-24.8-40.7-1.9-1.5-1.4-.3 2 4.5 13.8 19.7 19.6 38.2 20.6 66l.5 15.5-4.2-4c-4.4-4.2-13.3-15.5-12.7-16.1.2-.2 3 .5 6.2 1.6 9.3 3.2 8.6 1.8-1.4-2.8-10-4.7-10.6-5.4-17.6-19.1-2-4-3.8-7.1-4.1-6.8-.3.2.9 4.8 2.6 10.2 1.8 5.3 3 9.9 2.7 10.1-.2.3-2.3.2-4.6-.2-3.5-.6-4.7-1.4-6.6-4.4-4.3-6.7-10.2-19.4-13.4-28.5-1.8-4.9-3.3-9-3.4-9.1s-.3 6.4-.3 14.4c-.2 17.1-2.1 30.2-6.5 43.9-1.7 5.4-3.4 10.2-3.7 10.7-1.2 2-2.3-4.4-3.3-19.3-.5-8.6-1.1-16.1-1.3-16.6-.1-.6-.8 2.5-1.4 6.8-2.3 15.2-1.1 38.3 2.7 51.4 1.2 4.2.3 4.2-6.7.3-12.3-6.7-23-17.8-29.2-29.9-2.4-4.8-6.7-17.6-8.3-24.6-.3-1.1-.5 3.4-.6 10.1-.1 10.6.8 19.9 2.6 25.8q.45 1.8-.6 1.2c-1.3-.9-7.1-12-7.1-13.8 0-.6-.9-3-2-5.2-3.1-6.4-5-17.8-5-29.4 0-21.1 4.6-37.1 15.8-55.2l1.6-2.5-2.8 2.5c-6.9 6-13 18.2-16.8 33.5-1 4.4-4 12.5-6.5 17.9-4.9 10.9-10.4 26.9-12.2 35.7-.9 4.4-2 6.4-5.1 9.4-2.2 2.1-4.3 3.5-4.7 3.1s-.7-6.2-.7-12.9c.1-12.8 1.7-22.7 5.8-36.1 1.3-4.2 2.2-7.6 2-7.6-1 0-5.5 10.4-8.2 19-9 28.3-8.9 64.9.2 91.6 2.8 8.3 7.8 18.5 10 20.3 2.9 2.4 1.7 3.1-1.8 1-7.1-4.2-14.6-13-19.8-23.4l-5-10 .6 5.5c.3 3 .8 6.6 1.1 8s-1.1-.7-3-4.5c-8.9-17.9-11.8-46.8-6.9-70.5.4-1.9.3-2.1-.5-.9-2.3 3.5-5.4 22.5-5.4 32.9.1 16.1 2.8 28.3 9.6 43 3.2 7.1 3.5 8.3 4 21.5.6 14.3 2.1 22.7 6 35l2.2 7 .6-7c.4-3.9.7-10.2.8-14.2.2-10.4 1.7-9.8 2.5 1 1.9 27.6 9 57.4 15.8 66.9 2.6 3.8.8 3.6-6.3-.7-17.1-10.5-29.1-34.4-32.5-65.3-.4-3.4-.8-6.1-1-6-1.4 1.5-3.8 23.6-3.8 35.1 0 15.2-.6 15.7-4.7 4.8-5.6-14.9-6-30-1.4-57 4.2-25.2 4.5-28.6 3.4-41.1-.6-6.3-1.3-11.6-1.4-11.8-.2-.2-3 2.4-6.2 5.7-3.2 3.4-6.4 6.1-6.9 6.1-.6 0 .2-2.6 1.7-5.8 3.2-6.5 7.1-21.8 9.4-37.2 2.2-14.3 4.8-24 9.3-35.2 17.2-42.8 48.5-70 93.3-81.2 5.8-1.5 14.1-3.1 18.5-3.6 12.2-1.4 33.4-.5 45.1 1.9m90.7 44.3c.8 3 .6 8.8-.2 11-.4.9-2.8 3.5-5.5 5.8-3.9 3.5-5 4-6.2 3-.8-.7-1.5-1.9-1.5-2.7 0-3.8 9.6-19.3 12-19.3.4 0 1 1 1.4 2.2m-29 16.8c.9 2.2 1.6 5.2 1.6 6.6 0 2.2-.4 2.5-3.2 2.2-3.8-.3-4.3-1.8-3.3-8.4.8-5.6 2.8-5.7 4.9-.4m40.6 3.8c-2.4 7.6-3.3 8.2-11 8.2-5.7 0-7.1-.3-7.9-1.9-.8-1.4-.5-2.3 1.2-3.8 3.5-3.2 7-5.2 12.8-7.3 6.2-2.2 6.9-1.5 4.9 4.8m2 13.6c0 1.5-3.8 6.6-4.8 6.6-.4-.1-2-1.1-3.6-2.4l-2.9-2.4 2.9-1.6c3.6-1.9 8.4-2.1 8.4-.2m-15.5 5c5.9 2.6 7.1 4.6 3 4.6-3.9 0-10.5-3.7-9.9-5.5.8-1.9.3-1.9 6.9.9m-104.4 6.8 3.8 6.3-5.2 1.6c-2.9.9-5.3 1.5-5.4 1.4-.2-.1.3-3.8.9-8.3.7-4.5 1.4-7.9 1.6-7.7.3.3 2.2 3.3 4.3 6.7m67.4-5.3c.3.5 2.7 1.7 5.3 2.7 7.2 2.6 13.7 10.1 15.1 17.3 3.7 18.9 5.3 63.5 3.1 87.6-2.7 30.2-8.1 52-16.4 66.9-3.9 7-5.8 8.4-3.3 2.4 4.5-10.7 9.8-34.1 9.6-42.3l-.1-5-1.4 6.3c-3.3 15.2-9.9 31.1-17.4 42.2-7.2 10.6-20.7 21.3-30.8 24.4-1.9.7-1.7-.1 2.2-5.6 11.1-16 17.6-35.1 23.1-67.8 2.2-12.9 3.4-17.4 7.5-27 5.2-12.2 8.1-23.8 7.9-31.7-.1-4.7-.1-4.5-1.9 3.2-2.5 11-7.4 23.3-12 30.2-3.7 5.5-14 16.5-14 15 0-.4 1.5-3.8 3.4-7.5 7.8-15.5 11-32.5 10.9-57.7 0-14.3-.5-20.5-2.3-30-3.9-20.6-4.2-18.7 3.2-21.7 7.2-3.1 7.5-3.1 8.3-1.9m-149.1 20.8 1.5 4.3-2.7.6c-1.5.3-5.1 1.3-7.9 2.3-3.8 1.4-5.3 1.5-5.3.7 0-1.9 4.5-14.5 7.5-21.1l2.7-6 1.4 7.5c.7 4.1 2 9.4 2.8 11.7M370 179c2.4 1.2 5.9 2 8.9 2 4.3 0 5 .3 5.5 2.4.3 1.3 2.1 10 4.1 19.2 3.9 19.3 5.8 25.3 14.4 45.3 9.2 21.4 11.2 28 11.8 39.7.6 10.9-1.4 23.4-4.3 27-1.4 1.8-1.5 1.7-.9-1 .8-3.9-1.2-16.2-3.9-24.4-3.2-9.2-11.9-29.2-12.8-29.2-.5 0-.8 5.2-.8 11.5 0 12-1.8 23.2-5 31.7-2 5.4-9 18.1-9.6 17.6-.2-.3.3-3.6 1.1-7.4 1.6-7.2 2.1-31.6.9-38.1-.4-1.9-.1-7.4.6-12.2 1.1-7.7 1-9.5-.5-14.7-.9-3.2-2.5-7.3-3.5-8.9-1-1.7-2.4-5.9-3-9.5-1.3-7.5-4.8-20.3-8.3-30.6-3.9-11.2-4.2-14.5-1.7-18.7 1.2-2.1 2.4-3.7 2.6-3.7.3 0 2.2.9 4.4 2m-87.1 16.5c2.9 3.6 7.6 8.5 10.4 11 5.5 5 13.5 10.1 14.4 9.2.3-.3-.6-2.6-2-5.1-1.4-2.6-2.5-4.6-2.4-4.6s4.6 4.3 10.1 9.6c8.5 8.2 9.9 10 10.3 13.5.3 2.1.3 3.9 0 3.9s-3-2.5-5.9-5.6c-6.5-6.8-11.4-9.8-19.8-12-5.5-1.4-7.5-1.5-12.9-.5-6.7 1.3-12.5 3.8-17.8 7.8-3.4 2.6-5.3 5.9-2.9 5 1.2-.5 1.3-.1.6 1.9-.6 1.4-1 3.4-1 4.5 0 1.7.7 1.4 5.1-2.1 4.5-3.5 6.9-4.8 6.9-3.6 0 .2-.7 2.3-1.6 4.7-3.1 8.7.1 22.6 6.8 29.6 3 3.1 3.5 3.3 10.7 3.3 7.3 0 7.5-.1 11.1-3.9 5.7-6 7.9-16.8 5.7-27.6l-.9-4 2.5 2.3c3.6 3.4 5 7.3 4.5 13.1-.1 2.8 0 5.1.3 5.1s2.3-2.5 4.3-5.5 3.8-5.5 3.9-5.5c.2 0-.1 3.7-.5 8.2-1.6 16.6-7.1 32.6-15.7 45.5-2.7 4-4.4 7.3-3.8 7.3 2.3-.1 9.3-3.8 14-7.4 2.7-2.1 5.1-3.6 5.2-3.4.2.2.1 3-.2 6.2-.5 5-1.3 6.8-5.3 12-10.7 13.9-42.9 32.8-64.4 37.6-8.4 1.9-28.5-3.5-47.6-12.7-9.4-4.5-12.6-6.7-18.1-12.2-6-6-6.9-7.5-9.3-14.9-1.4-4.6-2.6-8.7-2.6-9.2s1.4-.5 3.2.1c4.4 1.2 4.7.4 1.1-3.4-5.4-5.8-7.3-8.9-9.3-15.4-1.1-3.5-4-11.5-6.5-17.8-4-10.1-4.5-12.3-4.5-19.2v-7.8l3.1 5.5c1.6 3 3.4 5.6 3.8 5.8.5.1.2 1.9-.5 4-2.5 6.9-1.9 9.2 3.8 14.9 2.9 2.9 5.6 5.3 6 5.3s.1-1.9-.7-4.1c-1.8-5-1.9-7.9-.3-13.1 1.2-3.9 8.1-12.8 9.2-11.8.3.3-.2 2.6-1 5-5.1 14.5 6.5 35.7 18.3 33.5 5.9-1.1 8.4-2.7 10.5-6.9 2.6-5.1 2.8-16.9.4-23.5-1.9-5.3-1.9-5.2-.1-4.5s2-.7.4-2.3c-.7-.7-1.2-2.2-1.3-3.5-.2-3.3-9.9-8-17.7-8.6-9.6-.7-18.9 4-24.1 12.3l-2 3 .7-8c.9-11.7 3.4-25.7 5-28.1 1.5-2.3 12.1-6.4 16.5-6.4 2.2 0 2.9.7 4 4.1.8 2.2 3.3 7 5.7 10.6 2.4 3.7 4.2 6.7 4 6.9-.1.2-2-.1-4.2-.6-4.2-.9-9.5-.3-9.5 1.1 0 .5 1.7.9 3.9.9 2.1 0 5.8.7 8.1 1.5 2.4.8 4.5 1.3 4.8 1 .3-.2 1.6.5 3 1.5 1.4 1.1 2.7 1.8 3 1.6.2-.3-.5-4.7-1.7-9.8s-2.4-10.1-2.6-11.1c-.5-2.8 1-1.9 2.7 1.6 2.6 5.5 11.6 15.5 18 20.3 7 5.1 16.7 9.9 22 10.9l3.6.7-1.8-7.4c-2.8-10.7-2.7-12.6.7-19.3 1.7-3.3 4.3-10.1 5.8-15 1.5-5 3.1-9.4 3.6-9.9 1-1.1 6.6-2.4 11.5-2.5 3.8-.1 4.3.3 9.3 6.4m7.8-5.7c.6.4 1.6 1.9 2.2 3.2.5 1.4 1.7 4.3 2.6 6.5l1.7 4-5.7-5.5c-3.1-3-6.1-6.3-6.6-7.3-.8-1.4-.5-1.7 1.8-1.7 1.5 0 3.3.4 4 .8m-125.2 28.3c-.4 3.3-1 7.3-1.4 8.7-.9 3-.9 3-3.1-5.7-1-3.9-.9-4.5 1.1-6.7 3.5-3.7 4.2-3 3.4 3.7M285 230c2.4 4.6-2.5 9.7-6.1 6.4-2.3-2.1-2.4-4.2-.2-6.6 2.1-2.4 5-2.3 6.3.2m86.2 11.9c5.3 6.2 6.1 18.7 1.9 27.4-2.4 4.8-5.8 9.4-6.4 8.7-.2-.3-.2-6.5.1-13.8.5-12.9.5-13.2 2.3-11.6s1.9 1.6 1.9.1c0-1-.9-3.4-2-5.4-2.1-3.9-2.7-8.3-1.1-8.3.5 0 2 1.3 3.3 2.9m-179.4 3.8c.3 2.7-.1 3.5-2.3 4.5-2.4 1.1-2.9 1-4.1-.7-2.5-3.3.1-7.8 4.1-7.3 1.5.2 2.1 1.2 2.3 3.5m112.2 7c0 6.6-8 11.8-15.5 9.9-6.3-1.6-9.5-9.3-5.9-14.4l1.6-2.3 2.2 3.3c3.7 5.6 10.4 4.6 12.1-1.9l.6-2.6 2.5 2.3c1.6 1.6 2.4 3.4 2.4 5.7m-94.9 7.7c2.6 5.7-2.7 14.6-8.7 14.6-3.2 0-8-2.5-8.8-4.5-1-2.8-.7-7 .8-9.1 1.4-1.8 1.5-1.8 3.6.9 3 3.8 6.9 3.4 9-1 1.8-3.9 2.7-4.1 4.1-.9m83.7 89.1c-.2 0-7.5 4.1-16.3 8.9-8.8 4.9-17.9 10.2-20.1 11.7l-4.2 2.8.3-6.1.2-6.1 4.6-1.7c5.2-2 21.9-12.7 29.2-18.9l5-4.1.8 6.6c.4 3.7.6 6.8.5 6.9m-74.2 41.7c-2.4 4.6-5.1 10.7-6 13.6-.8 2.9-2.7 6.7-4.1 8.4s-3.5 4.8-4.6 6.9c-1.9 3.8-3.3 5.2-2.4 2.6 4.8-15.4 9.1-28 10.6-30.9 1.7-3.3 7.8-8.6 10.2-8.7.4-.1-1.2 3.6-3.7 8.1"/><path d="M270.4 211.9c-3.6 1.6-8 5.9-7 6.8.1.2 3.2-1.2 6.7-3s7.8-3.7 9.4-4.4l3-1.1-4-.1c-2.2 0-5.9.8-8.1 1.8M229 280.3c0 .8.7 2.1 1.6 2.8 1.4 1.1 1.5 1 1.2-1.1-.3-2.6-2.8-4.1-2.8-1.7M240.3 310.7c-3 1.1-.9 2.3 4 2.3 4.8-.1 5-.2 3.3-1.5-2-1.5-4.9-1.8-7.3-.8"/></svg>